# xmcd
#
# Track frame offsets:
#	150
#	12544
#	26389
#	38675
#	51229
#	64789
#	78825
#	90954
#	103032
#	116905
#	129624
#	141928
#	155948
#	169166
#	183460
#	193986
#	206999
#	219971
#	232937
#	245962
#	258728
#	272326
#	286067
#	298786
#	309749
#	321064
#	331837
#
# Disc length: 4584 seconds
#
# Revision: 0
# Processed by: cddbd v1.5.2PL0 Copyright (c) Steve Scherf et al.
# Submitted via: EasyCDDAExtractor 16.0.9.1
#
DISCID=9911e61b
DTITLE=Little Walter - Just a feeling
DYEAR=2015
DGENRE=Blues
TTITLE0=Tell me mama
TTITLE1=You're so fine
TTITLE2=Mellow down easy
TTITLE3=Juke
TTITLE4=Can't hold out much longer
TTITLE5=Blues with feeling
TTITLE6=Too late
TTITLE7=My babe
TTITLE8=You better watch yourself
TTITLE9=Off the wall
TTITLE10=Last night
TTITLE11=Rocker
TTITLE12=Mean old world
TTITLE13=Sad hours
TTITLE14=Hate to see you go
TTITLE15=It ain't right
TTITLE16=One more chance with you
TTITLE17=Just a feeling
TTITLE18=Roller coaster 
TTITLE19=Boom, boom out goes the light
TTITLE20=Teenage beat
TTITLE21=Confessin' the blues
TTITLE22=Everything gonna be alright
TTITLE23=Break it up
TTITLE24=Me and Piney Brown
TTITLE25=Just your fool
TTITLE26=I got to go
EXTD=
EXTT0=
EXTT1=
EXTT2=
EXTT3=
EXTT4=
EXTT5=
EXTT6=
EXTT7=
EXTT8=
EXTT9=
EXTT10=
EXTT11=
EXTT12=
EXTT13=
EXTT14=
EXTT15=
EXTT16=
EXTT17=
EXTT18=
EXTT19=
EXTT20=
EXTT21=
EXTT22=
EXTT23=
EXTT24=
EXTT25=
EXTT26=
PLAYORDER=
